<svg xmlns="http://www.w3.org/2000/svg" width="48" height="48" viewBox="0 0 48 48">
  <path fill="#3DDB85" d="M35.0253992,20.2174905 C33.9257795,20.2174905 33.0313004,19.3222814 33.0313004,18.2226616 C33.0313004,17.1230418 33.9257795,16.2285627 35.0253992,16.2285627 C36.1252015,16.2285627 37.0196806,17.1228593 37.0196806,18.2226616 C37.0196806,19.3224639 36.1252015,20.2174905 35.0253992,20.2174905 M12.9829962,20.2174905 C11.8833764,20.2174905 10.9888973,19.3222814 10.9888973,18.2226616 C10.9888973,17.1230418 11.8831939,16.2285627 12.9829962,16.2285627 C14.082616,16.2285627 14.9770951,17.1228593 14.9770951,18.2226616 C14.9770951,19.3224639 14.0827985,20.2174905 12.9829962,20.2174905 M35.740654,8.20471483 L39.7262966,1.3018403 C39.9547313,0.905184544 39.8189488,0.398470111 39.4227833,0.169186312 C39.0261135,-0.0591407405 38.5194791,0.0766202539 38.2901293,0.47269962 L34.2546616,7.46281369 C31.1684259,6.05457034 27.7025703,5.26996198 24.0041977,5.26996198 C20.3058251,5.26996198 16.8399696,6.05457034 13.7539163,7.46281369 L9.71826616,0.47269962 C9.48891628,0.0766202539 8.98228205,-0.0591407405 8.58561217,0.169186312 C8.18918754,0.398271486 8.05334044,0.905227025 8.28209886,1.3018403 L12.2677414,8.20471483 C5.42381749,11.9269962 0.742996198,18.8556046 0.0582205323,27.0413384 L47.9501749,27.0413384 C47.2648517,18.8557871 42.5840304,11.9269962 35.740654,8.20453232" transform="translate(0 10)"/>
</svg>
