<svg xmlns="http://www.w3.org/2000/svg" width="48" height="48" viewBox="0 0 48 48">
  <path d="M32.5795648,25.4523342 C32.6468876,32.7024222 38.9398068,35.1150688 39.0095238,35.1458632 C38.9563142,35.3160163 38.0040203,38.5841208 35.694115,41.9598394 C33.6973036,44.8783191 31.6248766,47.7861079 28.3601918,47.8463307 C25.1523125,47.9054388 24.1208003,45.94405 20.4532861,45.94405 C16.7868797,45.94405 15.6408227,47.786103 12.6042076,47.9054388 C9.45295858,48.0246872 7.05331552,44.7494895 5.03990978,41.8417009 C0.925758959,35.893721 -2.21830353,25.0341071 2.00337768,17.7036907 C4.10061883,14.063376 7.84854731,11.7581769 11.9165886,11.6990643 C15.0110346,11.6400374 17.9318238,13.7809044 19.8234979,13.7809044 C21.7139726,13.7809044 25.2633531,11.2063243 28.994686,11.5844339 C30.5567494,11.6494485 34.9414871,12.2154191 37.7570476,16.3366688 C37.5301829,16.4773079 32.5251581,19.390995 32.5795648,25.452341 M26.5507264,7.64932622 C28.2237457,5.62420296 29.3497841,2.8050441 29.0425886,0 C26.6310571,0.0969219398 23.7149736,1.60697766 21.9852357,3.63098676 C20.4350583,5.42334107 19.0774514,8.29211848 19.4437573,11.0416447 C22.1316923,11.2496066 24.8776248,9.67573733 26.5507264,7.64932951" transform="translate(4)"/>
</svg>
