<svg xmlns="http://www.w3.org/2000/svg" width="48" height="48" viewBox="0 0 48 48">
  <g fill="none">
    <polygon fill="#F0DB4F" points="0 0 48 0 48 48 0 48"/>
    <path fill="#323330" d="M44.0714601,36.5521472 C43.7200491,34.3620123 42.2920245,32.5231902 38.0623313,30.8076564 C36.5931779,30.132319 34.9551902,29.6487853 34.4669448,28.5355583 C34.2934969,27.8875092 34.2707239,27.5226503 34.3802699,27.1301104 C34.6951656,25.8571779 36.2144785,25.4602209 37.419092,25.8252761 C38.1947485,26.0852025 38.9293742,26.683092 39.3719755,27.6366135 C41.4435337,26.2951656 41.4388221,26.3043926 42.8853006,25.3825767 C42.3559264,24.5613742 42.0730307,24.1825767 41.7263313,23.8312638 C40.4806871,22.4396564 38.783411,21.7232883 36.0685153,21.7780613 C35.5985276,21.8373497 35.1240245,21.9012515 34.6540368,21.960638 C33.2989448,22.3028221 32.0076564,23.0145767 31.2502577,23.9681963 C28.9779632,26.5462577 29.6260123,31.0586503 32.3909693,32.9157301 C35.1148957,34.9598037 39.1165644,35.4251779 39.6274847,37.3370307 C40.1248589,39.6776442 37.9073374,40.4350429 35.7035583,40.1658896 C34.0792147,39.828319 33.1757546,39.0023067 32.1992638,37.5012515 C30.4016687,38.541546 30.4016687,38.541546 28.5537178,39.6046135 C28.9917055,40.5628466 29.4525644,40.996319 30.1871902,41.8266503 C33.664,45.3536196 42.3651534,45.1803681 43.9254969,39.841865 C43.9893988,39.6593865 44.4091288,38.4365153 44.0714601,36.5521472 L44.0714601,36.5521472 Z M26.0943313,22.0608589 L21.6045153,22.0608589 L21.5862577,33.6684172 C21.5862577,36.1368344 21.7140613,38.4 21.3124908,39.0936933 C20.655411,40.457816 18.9535215,40.2890798 18.1777669,40.0243436 C17.3883681,39.6365153 16.9868957,39.0844663 16.5215215,38.3042945 C16.393816,38.0806871 16.2979141,37.9073374 16.2659141,37.8935951 C15.0476564,38.6372515 13.8340123,39.3856196 12.6156564,40.1292761 C13.2224785,41.3749202 14.1168098,42.4563436 15.2620368,43.1588712 C16.9731534,44.1854233 19.272638,44.500319 21.6772515,43.9481718 C23.2422086,43.4920245 24.5928834,42.5474356 25.3000245,41.1102822 C26.3220613,39.225816 26.1030675,36.9444908 26.0939387,34.4212025 C26.1171043,30.3056687 26.0943313,26.190135 26.0943313,22.0608589 L26.0943313,22.0608589 Z"/>
  </g>
</svg>
