<svg xmlns="http://www.w3.org/2000/svg" width="48" height="48" viewBox="0 0 48 48">
  <path fill="#FD4F00" d="M18.0253125,22.8821336 C17.8138125,22.8440711 17.7309375,22.8296336 17.6480625,22.8142586 C14.9690625,22.3160711 13.2755625,20.6949461 12.4730625,18.1464462 C11.9728125,16.5579462 12.8818125,15.3881337 14.5479375,15.3110712 C15.9121875,15.2478837 16.8459375,16.0320087 17.6716875,16.9443837 C18.736125,18.1207587 19.711875,19.3768211 20.757375,20.5708211 C22.262625,22.2896336 24.0361875,23.3964461 26.4628125,23.0548211 C28.63875,22.7484461 30.5349375,21.8752586 32.1849375,20.4380711 C32.433,20.2220711 32.7050625,20.0338211 32.96625,19.8326336 C32.9113125,19.7679461 32.8565625,19.7032586 32.801625,19.6385711 C31.4165625,20.0686961 30.0039375,20.2132586 28.5605625,20.1406961 C26.3765625,20.0308211 24.2955,19.5748211 22.4334375,18.3757587 C20.7343125,17.2815087 19.48125,15.8152587 18.8855625,13.8568212 C18.4044375,12.2746962 19.3891875,11.1678837 21.0286875,11.3966337 C21.676875,11.4870087 22.2225,11.7789462 22.71225,12.1929462 C23.1110625,12.5296962 23.4935625,12.8866962 23.90025,13.2133212 C25.813875,14.7510087 28.4878125,14.8365087 30.916875,13.1670087 C26.9235,13.1488212 24.206625,10.9522587 21.8203125,8.16844618 C20.886375,7.07888368 19.9745625,5.96982118 19.0213125,4.89750868 C17.176875,2.82244618 15.1306875,0.994321181 12.328875,0.370696181 C8.749875,-0.425991319 5.294625,0.0946961805 1.978125,1.61363368 C1.3168125,1.91644618 0.68175,2.26857118 0,2.83594618 C0.3375,2.83594618 0.521625,2.84007118 0.705375,2.83538368 C2.3775,2.79225868 3.6305625,3.53532118 4.5343125,4.90313368 C5.1920625,5.89857118 5.502,7.02432118 5.73825,8.18250868 C6.088875,9.90132118 5.907375,11.6536962 6.109875,13.3803837 C6.630375,17.8194462 8.899125,20.9171336 13.1235,22.5033836 C14.672625,23.0851961 16.2615,23.2788836 18.0253125,22.8821336 L18.0253125,22.8821336 Z M7.34925,2.63269618 C6.68175,2.80107118 6.1483125,2.53163368 5.5985625,1.97532118 C6.54,1.74075868 7.37025,1.64982118 8.262375,1.61475868 C8.1894375,2.19394618 7.8478125,2.50707118 7.34925,2.63269618 Z M29.222625,28.5547586 C29.1645,28.1274461 28.7994375,27.9391961 28.512375,27.7156961 C27.242625,26.7273836 25.757625,26.3775086 24.1831875,26.3484461 C23.243625,26.3311961 22.3138125,26.2610711 21.4276875,25.9316336 C21.0215625,25.7806961 20.56725,25.5868211 20.5775625,25.0620086 C20.587875,24.5295086 21.0511875,24.3789461 21.472875,24.2529461 C21.8180625,24.1498211 22.1743125,24.0840086 22.5673125,23.9921336 C21.5690625,23.3523836 20.593875,23.2636961 19.2945,23.7862586 C17.2490625,24.6086336 15.2325,24.5111336 13.1934375,23.7748211 C12.0421875,23.3593211 11.0205,22.7070086 9.9568125,22.1293211 L9.92775,22.1493836 C9.941625,22.1398211 9.95625,22.1296961 9.9553125,22.1302586 C9.9290625,22.0500086 9.8814375,22.0479461 9.8203125,22.0927586 C9.84825,22.1171336 9.876,22.1415086 9.90375,22.1658836 C10.7859375,23.6116961 11.9776875,24.7749461 13.3239375,25.7690711 C15.9166875,27.6834461 18.7486875,28.8251336 22.062375,28.3185086 C23.132625,28.1548211 24.2109375,28.0278836 25.290375,27.9408836 C26.64375,27.8315711 27.9331875,28.2123836 29.222625,28.5547586 Z M22.9753125,7.81369618 C22.9036875,7.76175868 22.834875,7.63144618 22.688625,7.76625868 C23.88075,9.37875868 25.41225,10.5675087 27.2563125,11.3158212 C30.2325,12.5235087 33.253125,12.7301337 36.3425625,11.6643837 C38.7410625,10.8371337 40.465875,11.6454462 41.3615625,13.9741962 C41.491125,11.2711962 39.9009375,9.30169618 37.368,8.91563368 C35.943,8.69850868 34.6273125,9.17119618 33.2925,9.55838368 C29.5779375,10.6353837 26.1260625,10.1036337 22.9753125,7.81369618 Z M41.4885,18.3564462 C41.972625,18.3971337 42.456375,18.4410087 42.9403125,18.4833837 C41.8468125,17.5228212 40.5140625,17.4466962 39.16575,17.5233837 C37.112625,17.6400087 35.6334375,18.8240711 34.2849375,20.2387586 C33.09675,21.4856336 32.023125,22.8843836 30.2499375,23.3853836 C30.2795625,23.4386336 30.28725,23.4652586 30.2955,23.4652586 C30.534,23.4688211 30.7730625,23.4800711 31.011,23.4691961 C33.5863125,23.3525711 36.012375,22.8093836 37.9423125,20.9403836 C38.55,20.3518211 39.0939375,19.6980086 39.680625,19.0871336 C40.17,18.5776962 40.7634375,18.2953212 41.4885,18.3564462 Z M35.5059375,15.1648212 C33.5840625,15.3328212 31.9145625,16.1278212 30.3465,17.1761337 C29.1395625,17.9829462 27.8488125,18.3646962 26.3983125,18.1123212 C26.143125,18.0678837 25.8860625,18.0346962 25.6299375,17.9962587 C25.6269375,18.0320712 25.624125,18.0676962 25.621125,18.1035087 C25.713375,18.1509462 25.8024375,18.2064462 25.8984375,18.2445087 C26.140125,18.3401337 26.37825,18.4552587 26.629125,18.5148837 C29.42025,19.1784461 32.092125,18.8385086 34.501125,17.2824462 C36.0195,16.3016337 37.5913125,16.1158212 39.2949375,16.3691337 C39.4670625,16.3948212 39.6384375,16.4261337 39.8113125,16.4422587 C39.9714375,16.4574462 40.1386875,16.6166337 40.354875,16.4443212 C38.8655625,15.3684462 37.2613125,15.0114462 35.5059375,15.1648212 Z M28.6370625,8.64113368 C29.64525,8.67600868 30.6489375,8.54400868 31.7034375,7.91757118 C31.394625,7.94494618 31.2635625,7.94438368 31.1379375,7.96950868 C29.6851875,8.25900868 28.381125,7.94213368 27.2195625,7.02375868 C26.793375,6.68663368 26.3600625,6.35850868 25.9284375,6.02832118 C24.2173125,4.71957118 22.255125,4.28175868 20.1088125,4.31888368 C20.1435,4.42444618 20.1455625,4.49682118 20.182875,4.53432118 C22.5181875,6.89644618 25.221,8.52338368 28.6370625,8.64113368 Z M45.5386875,20.7607586 C44.0934375,19.3273211 42.1539375,19.1426336 40.3591875,20.3936336 C41.5471875,20.4470711 42.4389375,20.8260086 43.162125,21.5748836 C43.4180625,21.8398211 43.683375,22.0998836 43.9696875,22.3308836 C45.0631875,23.2128836 46.917,23.2552586 48,22.4370086 C46.7278125,21.9405086 46.7278125,21.9405086 45.5386875,20.7607586 Z M31.144875,31.7379461 C29.87475,29.3737586 27.7400625,28.8403211 25.2740625,28.9989461 C26.0030625,29.2010711 26.683875,29.5121336 27.308625,29.9482586 C27.8825625,30.3489461 28.3655625,30.8450711 28.841625,31.3531961 C29.7849375,32.3598836 31.2571875,32.9776961 32.23275,32.7688211 C31.7848125,32.4864461 31.3869375,32.1883211 31.144875,31.7379461 Z M42.9631875,18.5321337 C42.9635625,18.5171337 42.9639375,18.5019462 42.964875,18.4861962 C42.964875,18.4860087 42.963,18.4880712 42.961125,18.4901337 L42.96525,18.4856337 C42.957,18.4848837 42.9485625,18.4841337 42.9403125,18.4833837 C42.9451875,18.4878837 42.9504375,18.4914462 42.9553125,18.4959462 C42.9579375,18.5079462 42.9605625,18.5201337 42.9631875,18.5321337 Z M29.293125,28.6104461 C29.2764375,28.6008836 29.25975,28.5915086 29.2430625,28.5821336 C29.2453125,28.5928211 29.2479375,28.6033211 29.2535625,28.6119461 C29.2569375,28.6175711 29.2794375,28.6111961 29.293125,28.6104461 Z M29.2430625,28.5821336 C29.2415625,28.5744461 29.24025,28.5665711 29.2381875,28.5588836 C29.2381875,28.5588836 29.235375,28.5624461 29.232375,28.5660086 L29.2381875,28.5590711 C29.233125,28.5575711 29.227875,28.5562586 29.222625,28.5547586 C29.2235625,28.5611336 29.2258125,28.5663836 29.2265625,28.5729461 C29.2321875,28.5759461 29.237625,28.5791336 29.2430625,28.5821336 Z" transform="translate(0 8)"/>
</svg>
