<svg xmlns="http://www.w3.org/2000/svg" width="48" height="48" viewBox="0 0 48 48">
  <path fill="#007ACC" d="M0,24 L0,0 L24,0 L48,0 L48,24 L48,48 L24,48 L0,48 L0,24 Z M38.6819048,25.912381 C39.9009524,25.607619 40.8304762,25.0666667 41.6838095,24.1828571 C42.1257143,23.7104762 42.7809524,22.8495238 42.8342857,22.6438095 C42.8495238,22.5828571 40.7619048,21.1809524 39.4971429,20.3961905 C39.4514286,20.3657143 39.2685714,20.5638095 39.0628571,20.8685714 C38.4457143,21.767619 37.7980952,22.1561905 36.807619,22.2247619 C35.352381,22.3238095 34.4152381,21.5619048 34.4228571,20.2895238 C34.4228571,19.9161905 34.4761905,19.6952381 34.6285714,19.3904762 C34.9485714,18.727619 35.5428571,18.3314286 37.4095238,17.5238095 C40.8457143,16.0457143 42.3161905,15.0704762 43.2304762,13.6838095 C44.2514286,12.1371429 44.48,9.66857143 43.7866667,7.83238095 C43.0247619,5.83619048 41.1352381,4.48 38.4761905,4.03047619 C37.6533333,3.88571429 35.7028571,3.90857143 34.8190476,4.06857143 C32.8914286,4.41142857 31.0628571,5.36380952 29.9352381,6.61333333 C29.4933333,7.10095238 28.632381,8.37333333 28.6857143,8.4647619 C28.7085714,8.4952381 28.9066667,8.61714286 29.127619,8.74666667 C29.3409524,8.86857143 30.1485714,9.33333333 30.9104762,9.7752381 L32.2895238,10.5752381 L32.5790476,10.1485714 C32.9828571,9.53142857 33.8666667,8.68571429 34.4,8.40380952 C35.9314286,7.59619048 38.0342857,7.71047619 39.0704762,8.64 C39.512381,9.04380952 39.6952381,9.46285714 39.6952381,10.08 C39.6952381,10.6361905 39.6266667,10.88 39.3371429,11.2990476 C38.9638095,11.832381 38.2019048,12.2819048 36.0380952,13.2190476 C33.5619048,14.2857143 32.4952381,14.9485714 31.52,16 C30.9561905,16.6095238 30.4228571,17.5847619 30.2019048,18.4 C30.0190476,19.0780952 29.9733333,20.7771429 30.1180952,21.4628571 C30.6285714,23.8552381 32.4342857,25.5238095 35.04,26.0190476 C35.8857143,26.1790476 37.8514286,26.1180952 38.6819048,25.912381 Z M27.4133333,23.9085714 L27.4285714,21.9428571 L24.3047619,21.9428571 L21.1809524,21.9428571 L21.1809524,13.0666667 L21.1809524,4.19047619 L18.9714286,4.19047619 L16.7619048,4.19047619 L16.7619048,13.0666667 L16.7619048,21.9428571 L13.6380952,21.9428571 L10.5142857,21.9428571 L10.5142857,23.8704762 C10.5142857,24.9371429 10.5371429,25.8285714 10.567619,25.8514286 C10.5904762,25.8819048 14.392381,25.8971429 19.0019048,25.8895238 L27.3904762,25.8666667 L27.4133333,23.9085714 Z" transform="matrix(1 0 0 -1 0 48)"/>
</svg>
