<?xml version="1.0" standalone="no"?>
<!DOCTYPE svg PUBLIC "-//W3C//DTD SVG 20010904//EN"
 "http://www.w3.org/TR/2001/REC-SVG-20010904/DTD/svg10.dtd">
<svg version="1.0" xmlns="http://www.w3.org/2000/svg"
 width="540.000000pt" height="540.000000pt" viewBox="0 0 540.000000 540.000000"
 preserveAspectRatio="xMidYMid meet">
<metadata>
Created by potrace 1.14, written by Peter Selinger 2001-2017
</metadata>
<g transform="translate(0.000000,540.000000) scale(0.100000,-0.100000)"
fill="#000000" stroke="none">
<path d="M2500 5394 c-683 -64 -1237 -320 -1705 -789 -433 -432 -681 -931
-772 -1550 -24 -167 -24 -543 0 -710 91 -619 339 -1118 772 -1550 432 -433
931 -681 1550 -772 167 -24 543 -24 710 0 619 91 1118 339 1550 772 364 364
596 771 716 1260 221 901 -32 1843 -675 2513 -420 437 -951 711 -1556 803
-131 19 -479 33 -590 23z m520 -164 c579 -82 1071 -323 1471 -720 69 -69 154
-161 189 -204 161 -199 328 -493 415 -730 117 -317 171 -703 147 -1039 -26
-363 -101 -644 -258 -963 -270 -553 -734 -988 -1309 -1229 -86 -36 -319 -115
-340 -115 -4 0 -22 40 -50 110 -10 25 -23 59 -31 75 -50 116 -50 118 -128 405
-55 204 -77 287 -126 495 -5 22 -28 132 -50 245 -23 113 -45 221 -50 240 -8
30 -25 201 -35 335 -6 101 -55 766 -59 815 l-5 55 14 -60 c8 -33 19 -82 25
-110 5 -27 15 -54 21 -60 9 -7 10 15 6 85 -5 87 -5 92 8 59 7 -20 19 -61 26
-92 6 -32 16 -57 21 -57 24 0 -15 227 -47 270 -31 41 -44 69 -32 64 15 -5 69
-95 84 -139 25 -73 33 -105 44 -182 12 -91 29 -111 29 -35 0 58 -16 200 -26
227 l-6 20 14 -20 c15 -20 32 -80 43 -147 3 -21 11 -38 17 -38 13 0 4 149 -10
178 -5 9 -12 31 -15 47 -8 37 62 -107 75 -155 6 -19 14 -75 18 -124 9 -88 14
-105 27 -92 11 11 19 107 12 161 -4 28 -3 54 1 58 4 4 1 31 -7 60 -7 29 -12
63 -10 77 2 21 4 19 15 -15 20 -69 40 -167 53 -253 7 -53 15 -81 23 -79 7 3
10 42 8 128 l-3 124 28 -55 c21 -44 27 -68 26 -117 -1 -35 2 -63 8 -63 5 0 9
5 9 10 0 6 5 10 10 10 6 0 10 -16 10 -35 0 -45 16 -45 23 0 6 39 -17 226 -33
263 -13 30 -13 49 -1 36 32 -32 85 -169 96 -247 4 -30 10 -45 17 -41 11 7 6
107 -8 152 -4 13 -2 22 5 22 6 0 11 -6 11 -12 0 -7 6 -25 14 -39 15 -29 54
-178 58 -223 2 -16 9 -31 15 -33 9 -4 11 16 8 79 -6 98 -16 151 -50 266 -13
39 9 23 27 -21 23 -57 36 -111 42 -177 21 -222 25 -240 44 -203 13 24 10 286
-3 318 -8 18 -7 19 9 5 16 -13 18 -31 15 -199 -3 -127 0 -186 7 -188 12 -4 36
144 36 222 0 53 9 58 26 12 16 -43 15 -81 -2 -137 -7 -25 -16 -66 -20 -93 -6
-38 -4 -47 8 -47 9 0 17 14 21 38 3 20 15 53 26 72 l19 35 -6 -40 c-9 -59 -31
-141 -44 -164 -6 -12 -9 -21 -6 -21 3 0 -2 -16 -10 -36 -15 -36 -14 -51 4 -40
8 5 23 37 91 201 19 46 20 48 21 19 0 -49 -19 -141 -40 -187 -36 -78 -20 -92
25 -22 15 25 29 44 31 42 3 -2 -8 -50 -21 -94 -5 -17 -3 -23 7 -23 15 0 46 83
64 170 7 32 9 45 14 90 1 8 6 -2 11 -22 10 -44 1 -96 -35 -195 -30 -84 -36
-154 -11 -133 8 7 15 20 16 29 0 9 15 48 34 86 l34 70 1 -46 c0 -26 -11 -79
-23 -118 -13 -40 -20 -74 -15 -77 5 -3 10 -4 12 -3 1 2 11 21 21 42 25 47 39
49 19 2 -16 -38 -19 -85 -5 -85 4 0 18 27 30 61 13 33 25 59 27 56 3 -2 0 -15
-5 -28 -14 -39 -21 -138 -10 -145 6 -3 13 4 16 15 4 17 8 19 20 9 11 -9 16 -9
23 2 5 8 6 18 4 22 -3 4 -1 8 4 8 10 0 21 -72 26 -169 2 -31 8 -57 14 -59 12
-4 15 18 13 137 l0 65 19 -32 c19 -31 64 -61 75 -50 3 3 -6 26 -20 51 -16 28
-22 48 -15 52 11 7 -11 53 -59 125 -40 59 -39 72 2 32 30 -29 57 -41 57 -26 0
3 -15 24 -33 47 -42 53 -101 146 -95 152 2 2 25 -21 52 -50 50 -56 77 -65 52
-17 -8 15 -30 43 -48 63 -18 20 -34 47 -35 61 -1 14 -15 44 -31 68 -16 24 -27
51 -25 60 3 12 -19 38 -66 81 -39 35 -71 68 -71 73 0 6 14 -5 31 -22 29 -29
49 -40 49 -26 0 3 -12 21 -26 40 -15 19 -24 34 -20 34 13 0 -26 75 -60 117
-25 31 -31 43 -20 43 37 0 5 29 -49 45 -11 3 -31 14 -45 25 l-25 20 28 0 c40
0 29 23 -14 31 -86 16 -106 20 -136 30 -17 5 -37 17 -43 25 -10 12 -8 14 14
14 15 0 43 -7 63 -15 42 -18 43 -18 43 -5 0 6 -19 20 -42 30 -26 12 -43 26
-43 36 0 13 -20 24 -73 42 -54 18 -72 28 -70 40 2 10 -5 18 -17 20 -11 2 -25
11 -32 19 -7 9 -22 17 -35 18 -13 1 -30 3 -38 4 -13 1 -13 2 0 11 13 8 11 12
-10 27 -14 9 -50 41 -80 71 l-55 54 47 -32 c26 -18 73 -55 105 -81 92 -79 101
-63 17 29 -31 34 -53 62 -50 62 9 0 93 -59 106 -75 13 -15 40 -21 40 -8 0 4
-19 27 -42 52 l-43 45 45 -39 c25 -21 49 -44 53 -52 4 -7 12 -13 17 -13 24 0
5 33 -55 96 -66 70 -83 98 -42 72 89 -59 157 -96 162 -88 3 4 -9 19 -27 31
-52 36 -100 79 -88 79 24 0 162 -74 179 -96 11 -13 22 -24 25 -24 10 0 7 38
-4 45 -5 3 -19 19 -31 36 -21 30 -21 31 -2 20 35 -18 115 -43 121 -37 9 10 -8
20 -83 51 -62 25 -150 75 -133 75 3 0 30 -12 59 -26 55 -28 79 -35 194 -59 39
-8 82 -17 98 -21 44 -10 31 11 -20 34 -57 25 -185 72 -196 72 -5 0 -25 11 -45
25 -20 14 -32 25 -27 25 23 0 316 -115 361 -142 34 -20 52 -20 39 1 -10 18
-163 113 -249 156 -86 43 -87 55 -3 31 63 -18 148 -62 236 -122 35 -24 70 -44
79 -44 10 0 12 3 7 9 -37 34 -185 159 -205 173 -17 12 -5 10 33 -7 64 -27 104
-56 213 -152 64 -56 94 -75 94 -57 0 11 -165 190 -197 215 -18 13 -33 27 -33
32 0 14 55 -6 68 -24 7 -10 33 -30 57 -45 52 -30 97 -78 125 -135 12 -22 25
-37 30 -34 15 9 12 28 -14 86 -25 56 -59 99 -111 136 l-30 22 43 1 c23 0 42
-4 42 -9 0 -5 34 -49 75 -97 50 -60 77 -101 81 -124 9 -46 13 -53 29 -40 9 8
14 5 18 -12 5 -18 9 -20 19 -10 9 9 9 20 1 45 -6 17 -16 55 -23 82 -7 28 -16
55 -20 60 -9 12 -22 65 -16 65 11 0 62 -96 82 -152 7 -21 24 -24 24 -5 0 8 -6
35 -14 62 l-15 47 24 -22 c27 -25 82 -133 91 -179 8 -39 24 -41 24 -2 0 33
-15 84 -37 124 -8 16 -13 30 -10 33 7 7 35 -40 56 -93 10 -26 23 -49 30 -51
19 -6 12 15 -36 110 -64 124 -65 128 -48 128 8 0 15 -6 15 -14 0 -15 100 -144
113 -145 4 -1 7 3 7 8 0 13 -55 95 -75 111 -21 17 -19 29 5 23 18 -5 32 -25
105 -161 13 -23 25 -52 27 -64 2 -12 9 -23 17 -26 20 -7 10 81 -17 140 -12 26
-22 52 -22 57 0 20 19 11 44 -21 30 -41 49 -110 41 -149 -4 -18 -3 -29 4 -29
16 0 33 50 28 78 -7 38 20 4 30 -37 12 -47 35 -54 27 -9 -3 18 -10 48 -16 66
-14 48 -2 51 18 6 11 -25 18 -65 18 -111 0 -40 1 -73 2 -73 0 0 15 7 32 16 37
18 62 50 62 79 1 17 5 15 30 -14 33 -39 51 -35 29 6 -16 31 -147 173 -159 173
-4 0 -34 15 -67 33 -194 109 -399 157 -677 160 -246 3 -397 -11 -591 -52 -97
-21 -111 -25 -272 -72 -42 -13 -44 -13 -153 21 -14 4 -45 13 -69 20 -77 21
-26 35 126 35 73 0 133 3 133 6 0 10 -82 30 -177 43 l-88 13 50 8 c36 6 92 2
204 -14 89 -13 158 -18 163 -13 7 7 -159 52 -342 92 -67 14 159 2 289 -16 58
-8 111 -14 119 -14 27 0 5 25 -29 31 -19 4 -63 15 -99 24 -137 35 -183 45
-210 45 -47 0 -43 17 6 29 59 15 221 13 344 -5 120 -17 158 -18 143 -3 -6 6
-62 22 -124 35 -168 36 -197 41 -279 45 -51 2 -50 2 25 9 106 9 173 4 273 -20
100 -25 203 -31 209 -12 3 8 -6 12 -25 12 -31 0 -210 52 -240 69 -25 15 21 14
143 -4 55 -7 102 -11 105 -9 7 7 -22 24 -42 24 -10 0 -35 6 -55 14 -21 8 -50
17 -65 20 -16 4 -28 11 -28 16 0 15 159 11 205 -5 43 -16 54 -13 36 9 -20 24
-101 46 -172 46 -37 0 -70 4 -73 8 -8 14 284 2 337 -13 40 -12 47 -12 47 0 0
7 -24 22 -52 32 l-53 18 122 10 c67 5 125 13 128 17 12 12 -34 17 -195 21
-184 5 -260 23 -99 24 78 0 312 8 359 13 17 1 -23 21 -55 26 -58 10 -61 10
-165 19 -80 7 -90 10 -65 17 39 12 279 15 328 5 22 -5 37 -4 37 1 0 6 -17 17
-37 25 -24 10 -31 16 -18 16 25 0 94 -14 118 -24 12 -5 17 -2 17 9 0 9 -4 16
-8 16 -5 0 -16 6 -26 13 -17 12 -13 14 29 15 48 0 67 13 62 42 -1 11 -23 17
-75 24 -65 7 -71 10 -54 21 10 8 30 17 43 20 34 9 62 32 55 44 -6 10 -41 -1
-98 -30 -26 -13 -35 -11 -41 11 -7 29 -33 25 -45 -8 -7 -21 -19 -30 -56 -40
-64 -17 -73 -15 -42 9 29 22 33 41 13 57 -10 8 -28 -4 -75 -49 -35 -33 -76
-64 -92 -69 -17 -5 -30 -6 -30 -3 0 3 16 27 35 53 35 48 43 70 26 70 -5 0 -42
-32 -83 -71 -71 -68 -121 -103 -138 -97 -4 2 25 31 67 66 41 35 77 70 80 78
11 28 -8 27 -40 -2 -37 -35 -109 -84 -122 -84 -5 0 4 13 19 29 16 17 25 34 21
41 -5 8 -23 -3 -54 -33 -25 -24 -77 -68 -116 -97 -38 -29 -87 -69 -107 -88
-21 -20 -40 -33 -43 -30 -3 3 15 23 41 44 26 22 54 46 63 55 9 9 28 24 44 34
28 18 36 35 16 35 -7 0 -42 -19 -78 -42 -36 -24 -84 -52 -105 -63 -21 -11 -51
-31 -66 -45 -15 -14 -38 -34 -51 -45 l-24 -20 24 28 c32 36 5 38 -29 2 -13
-14 -30 -25 -37 -25 -20 0 -139 -103 -191 -164 -24 -28 -57 -67 -74 -87 -31
-37 -68 -117 -95 -204 -26 -83 -57 -159 -60 -149 -8 25 46 217 68 239 11 11
12 35 0 35 -16 0 -95 -176 -107 -239 -6 -28 -23 -62 -24 -46 0 22 -74 123
-157 217 -48 54 -91 98 -94 98 -3 0 -17 10 -30 23 -110 105 -302 215 -469 270
-158 52 -242 70 -485 103 -66 8 -135 19 -153 24 -28 7 -33 6 -30 -8 2 -9 14
-19 28 -23 l25 -6 -30 -12 c-115 -47 -430 -244 -419 -263 6 -10 16 -5 163 84
100 60 137 79 239 119 51 20 53 6 2 -18 -102 -47 -380 -219 -395 -244 -4 -5 3
-9 14 -9 11 0 22 4 25 9 8 12 143 90 234 135 74 37 192 76 226 75 14 0 16 -2
6 -6 -58 -20 -320 -159 -320 -170 0 -17 6 -17 54 6 99 46 221 94 311 121 22 7
50 16 63 21 13 5 33 9 45 8 15 0 17 -2 7 -6 -76 -28 -250 -115 -250 -125 0
-12 22 -9 51 6 60 31 298 97 344 95 21 0 21 0 -50 -30 -132 -54 -185 -80 -185
-91 0 -12 8 -10 85 17 39 14 72 25 75 25 3 0 -33 -23 -80 -50 -89 -53 -139
-95 -127 -106 4 -4 15 0 24 9 43 38 282 137 331 137 9 0 -1 -12 -23 -27 -22
-15 -64 -46 -93 -70 -30 -24 -57 -43 -61 -43 -9 0 -33 -41 -28 -47 4 -3 50 25
157 97 30 20 87 50 95 50 3 0 -22 -23 -57 -52 -94 -78 -113 -97 -105 -104 3
-4 23 6 43 22 78 62 219 142 230 131 2 -2 -19 -19 -48 -37 -52 -34 -138 -111
-138 -123 0 -16 29 -5 81 32 32 22 72 47 90 57 29 14 24 7 -34 -56 -37 -40
-67 -76 -67 -81 0 -21 25 -6 75 44 30 28 77 65 106 80 l52 29 -72 -79 c-73
-78 -105 -126 -99 -144 2 -6 22 12 44 40 75 92 200 184 263 193 42 6 32 -16
-19 -41 -58 -28 -147 -105 -201 -174 -52 -65 -40 -78 19 -20 78 75 163 125
255 149 94 24 88 11 -17 -40 -152 -74 -234 -131 -214 -151 2 -2 42 15 88 38
47 23 99 47 115 53 17 7 39 15 50 19 27 11 -18 -26 -60 -48 -44 -24 -100 -75
-91 -84 4 -4 19 1 34 11 63 41 171 86 217 91 l50 6 -40 -17 c-58 -25 -191
-102 -205 -120 -22 -26 -3 -26 52 -1 105 50 134 58 203 62 39 3 61 2 50 -1
-112 -27 -152 -40 -163 -51 -7 -7 -18 -13 -23 -13 -12 0 -88 -53 -89 -62 0
-11 38 -10 44 1 11 17 107 42 174 45 92 5 126 -9 48 -18 -32 -4 -68 -11 -80
-16 -12 -4 -40 -14 -63 -21 -71 -20 -49 -30 60 -27 56 2 125 -1 152 -7 49 -11
47 -12 -75 -18 -103 -5 -137 -2 -195 13 -129 34 -273 29 -193 -7 18 -8 5 -12
-68 -22 -117 -16 -174 -32 -174 -48 0 -8 13 -14 33 -14 21 -1 7 -6 -38 -14
-159 -29 -253 -65 -198 -77 12 -3 5 -8 -22 -17 -22 -7 -53 -18 -70 -25 -16 -7
-68 -28 -114 -47 -46 -19 -86 -41 -88 -49 -2 -8 -27 -25 -54 -38 -27 -12 -49
-27 -49 -32 0 -15 12 -13 112 20 50 17 93 28 95 26 5 -5 -160 -69 -264 -102
-127 -41 -333 -164 -333 -199 0 -6 -24 -27 -52 -46 -64 -41 -188 -146 -188
-159 0 -15 26 -12 40 5 23 28 232 155 255 155 15 0 -77 -71 -123 -94 -49 -25
-262 -217 -262 -237 0 -18 18 -8 65 33 53 47 48 24 -9 -40 -56 -63 -116 -150
-116 -168 0 -12 11 -6 36 22 22 24 33 31 29 19 -4 -11 -11 -33 -15 -50 -5 -16
-16 -57 -24 -89 -9 -32 -14 -61 -12 -63 9 -9 24 7 29 29 10 46 59 172 74 192
15 20 15 20 8 1 -10 -26 -62 -225 -69 -261 -2 -16 -9 -51 -14 -77 -17 -83 11
-49 35 44 12 46 31 109 43 139 20 53 21 53 16 15 -3 -22 -8 -73 -12 -112 -6
-64 -5 -73 10 -73 11 0 16 9 16 33 1 82 57 248 134 395 27 54 45 67 27 21 -17
-47 -53 -311 -43 -321 6 -6 12 8 16 39 4 26 11 64 16 83 46 184 74 273 95 303
20 28 19 23 -5 -43 -27 -72 -76 -263 -83 -320 -6 -47 13 -104 27 -81 4 7 6 18
3 25 -7 17 15 105 43 181 13 33 35 96 50 140 37 106 52 141 96 216 38 65 121
169 136 169 4 0 -16 -37 -45 -82 -29 -46 -59 -99 -66 -118 -34 -91 -105 -319
-113 -362 -6 -33 17 -22 38 17 19 36 30 65 81 210 25 71 79 169 127 233 26 34
49 62 51 62 2 0 -13 -28 -34 -62 -65 -110 -161 -331 -161 -371 0 -28 28 16
100 158 45 88 87 167 95 175 7 8 20 29 28 46 19 36 160 190 190 206 18 9 18 7
-4 -23 -13 -19 -29 -43 -35 -54 -6 -11 -21 -38 -34 -60 -29 -51 -59 -104 -100
-180 -18 -33 -40 -68 -48 -78 -11 -13 -12 -21 -5 -28 8 -8 20 1 42 32 17 24
40 58 51 74 12 17 58 86 103 155 96 147 154 225 192 260 25 23 27 23 16 3 -6
-11 -29 -49 -52 -83 -55 -84 -170 -310 -163 -322 9 -15 28 7 90 105 32 51 79
122 104 159 45 67 162 209 168 204 1 -2 -14 -32 -34 -67 -20 -35 -42 -79 -50
-98 -8 -19 -37 -74 -65 -123 -45 -78 -89 -178 -89 -200 0 -22 19 -3 39 40 13
26 52 91 88 146 36 54 75 117 87 140 33 61 111 176 146 216 31 34 31 34 11 3
-12 -17 -21 -34 -21 -38 0 -4 -9 -19 -19 -34 -11 -14 -52 -89 -91 -166 -40
-77 -77 -145 -82 -152 -6 -7 -5 -14 3 -18 12 -8 15 -5 60 70 78 131 149 240
149 229 0 -5 -9 -23 -19 -40 -26 -42 -71 -169 -71 -200 0 -13 5 -24 10 -24 6
0 10 6 10 13 0 15 87 191 122 247 34 54 133 184 154 200 14 12 13 9 -4 -17
-47 -70 -59 -89 -81 -133 -13 -25 -48 -87 -78 -138 -31 -51 -53 -96 -49 -99
11 -11 104 95 142 161 33 56 59 99 108 172 36 55 104 111 140 117 34 5 32 3
-63 -91 -54 -53 -117 -126 -140 -162 -54 -81 -102 -176 -94 -184 8 -7 43 23
43 37 0 18 105 150 184 232 43 44 71 69 62 55 -9 -14 -23 -38 -32 -55 -29 -52
-93 -134 -114 -145 -25 -13 -26 -30 -1 -30 39 0 116 78 192 195 51 78 150 177
164 163 2 -2 -17 -27 -43 -55 -26 -28 -81 -93 -122 -144 -41 -51 -92 -112
-112 -136 -21 -24 -35 -50 -32 -57 3 -8 -2 -17 -13 -20 -22 -7 -218 -206 -203
-206 24 0 76 35 140 95 65 61 116 95 141 95 7 0 -18 -22 -57 -49 -38 -27 -102
-81 -142 -121 -83 -82 -188 -217 -178 -228 4 -4 19 7 33 23 54 64 110 123 148
155 43 37 35 25 -37 -58 -48 -54 -158 -212 -158 -226 0 -4 -9 -21 -21 -37 -11
-16 -18 -37 -15 -45 7 -19 24 -10 37 20 7 15 7 9 3 -21 -8 -58 15 -58 39 0 9
24 36 63 60 88 23 25 37 38 30 30 -6 -9 -38 -65 -70 -126 -33 -60 -66 -120
-73 -132 -22 -34 -1 -42 24 -9 42 57 86 108 86 99 0 -5 -4 -13 -9 -19 -33 -34
-101 -177 -91 -189 6 -7 -4 -28 -26 -54 -34 -43 -43 -71 -24 -71 6 0 10 3 10
8 1 4 26 34 56 67 l55 60 -47 -92 c-44 -84 -52 -115 -26 -99 6 3 24 35 41 70
32 66 51 89 51 61 0 -15 -72 -162 -126 -257 -15 -27 -24 -51 -21 -55 4 -3 8
-4 10 -2 2 2 32 48 67 101 35 54 65 97 66 95 2 -1 -8 -25 -21 -52 -49 -105
-90 -241 -74 -251 5 -3 12 3 15 13 21 67 104 246 111 239 2 -1 -8 -31 -22 -66
-22 -55 -80 -248 -90 -297 -2 -10 -6 -30 -10 -45 -5 -18 -3 -28 4 -28 13 0 24
26 51 115 28 91 80 239 87 245 3 3 3 -6 -1 -20 -4 -14 -11 -38 -16 -55 -9 -32
-67 -264 -76 -303 -3 -17 -1 -23 8 -20 7 3 23 33 35 69 l21 64 -5 -77 c-4 -54
-2 -78 5 -78 6 0 14 17 17 37 10 61 47 197 58 208 13 15 3 -61 -27 -195 -14
-63 -24 -121 -21 -127 9 -27 22 -11 35 44 15 67 31 102 29 63 -1 -14 -1 -67
-1 -117 3 -151 17 -121 48 106 8 57 18 67 38 36 10 -15 23 -24 30 -22 7 3 32
-10 56 -29 40 -32 70 -43 70 -26 0 4 -22 26 -49 49 -64 55 -117 121 -125 155
-5 24 2 19 60 -37 36 -35 75 -67 86 -71 49 -15 35 17 -52 117 -82 95 -149 190
-132 189 4 -1 25 -19 47 -40 35 -35 85 -54 85 -32 0 7 -36 54 -104 138 -45 54
-28 51 20 -4 25 -28 50 -52 55 -52 26 0 14 37 -51 149 -38 68 -70 130 -70 138
0 8 23 -11 51 -41 47 -51 80 -68 93 -48 5 8 -6 27 -47 85 -29 40 -54 121 -61
189 -4 53 -4 57 4 23 16 -68 44 -159 52 -170 42 -56 72 -85 81 -76 11 11 2 50
-38 161 -15 41 -31 93 -36 115 -13 66 -21 278 -11 304 6 18 9 -5 8 -80 0 -57
4 -118 11 -134 6 -17 16 -50 23 -75 7 -25 16 -54 21 -65 4 -11 11 -30 14 -42
8 -30 33 -30 40 0 3 12 -2 60 -10 107 -9 47 -20 105 -25 130 -5 25 -9 69 -9
99 -1 77 42 292 55 278 2 -2 -5 -46 -16 -98 -23 -112 -30 -240 -14 -246 7 -2
16 22 24 64 13 77 51 213 60 213 3 0 3 -29 2 -65 -4 -71 13 -91 23 -27 13 80
27 142 30 142 10 0 -13 -198 -26 -222 -6 -10 -5 -19 1 -23 13 -8 49 52 56 95
13 85 15 88 33 83 15 -4 21 10 39 82 11 47 27 98 35 113 28 55 59 107 69 117
11 11 12 11 -22 -75 -24 -61 -50 -188 -50 -245 0 -67 21 -53 37 24 20 96 33
109 26 24 -8 -100 10 -94 30 10 20 99 61 225 89 273 25 43 34 44 12 2 -10 -18
-21 -46 -25 -63 -20 -78 -37 -153 -42 -187 -8 -53 15 -50 38 5 45 111 44 110
45 27 0 -41 3 -120 5 -175 2 -55 7 -172 10 -260 3 -88 10 -209 15 -270 29
-346 28 -334 120 -835 6 -30 14 -71 20 -90 5 -19 16 -69 25 -110 9 -41 20 -91
26 -110 5 -19 27 -111 49 -205 22 -93 44 -186 50 -205 5 -19 25 -102 45 -185
20 -82 40 -164 45 -181 15 -46 12 -61 -12 -68 -13 -3 -98 -11 -190 -18 -341
-24 -725 30 -1044 147 -342 126 -707 364 -954 621 -243 254 -447 578 -565 898
-117 317 -171 703 -147 1038 26 364 101 645 257 964 160 326 398 625 679 853
196 160 492 328 730 416 182 67 440 125 648 145 112 11 444 5 548 -10z m87
-1266 c-3 -3 -12 -4 -19 -1 -8 3 -5 6 6 6 11 1 17 -2 13 -5z m-117 -168 c0 -2
-11 -6 -25 -8 -13 -3 -22 -1 -19 3 5 9 44 13 44 5z m1217 -178 c13 -12 23 -26
23 -32 0 -6 7 -24 15 -40 9 -16 14 -30 12 -32 -2 -3 -49 63 -80 113 -12 20 4
15 30 -9z m-1362 -70 c-19 -11 -30 -5 -21 11 4 6 14 7 22 4 15 -5 14 -7 -1
-15z m151 -53 c-11 -8 -24 -15 -29 -15 -5 0 -20 -9 -33 -19 -20 -15 -31 -18
-56 -11 -17 5 -32 11 -35 13 -6 6 119 45 147 46 24 0 24 0 6 -14z m213 -38
c11 -18 31 -43 45 -56 43 -40 29 -42 -26 -4 -79 52 -90 64 -77 80 18 21 36 15
58 -20z m-407 -89 l-22 -22 0 21 c0 12 7 23 18 25 27 6 28 -1 4 -24z m-354
-39 c-29 -34 -76 -91 -105 -126 -82 -103 -131 -153 -148 -153 -9 0 5 20 37 53
29 29 98 106 152 170 55 64 104 117 109 117 5 0 -15 -28 -45 -61z m670 -34 c8
-8 -25 5 -100 38 -56 25 -71 41 -46 49 9 3 125 -65 146 -87z m-518 57 c0 -21
-180 -182 -204 -182 -3 0 36 43 88 95 84 86 116 110 116 87z m70 -51 c0 -12
-8 -17 -45 -25 l-30 -6 24 20 c24 21 51 27 51 11z m227 3 c-3 -3 -12 -4 -19
-1 -8 3 -5 6 6 6 11 1 17 -2 13 -5z m-27 -74 c-20 -13 -43 -13 -35 0 3 6 16
10 28 10 18 0 19 -2 7 -10z m223 -36 c46 -9 32 -26 -15 -19 -60 9 -118 25
-118 31 0 6 76 -2 133 -12z m-1233 -28 c0 -2 -8 -10 -17 -17 -16 -13 -17 -12
-4 4 13 16 21 21 21 13z m1454 -36 c15 -15 -54 -12 -89 5 -29 13 -28 13 25 9
30 -2 59 -9 64 -14z m53 -6 c-3 -3 -12 -4 -19 -1 -8 3 -5 6 6 6 11 1 17 -2 13
-5z m161 -90 c4 -4 -1 -4 -11 -1 -10 4 -33 7 -51 7 -18 0 -41 6 -51 14 -16 11
-9 11 44 0 35 -7 66 -16 69 -20z m262 -291 c0 -10 -39 19 -70 53 -35 37 -35
37 18 -6 28 -24 52 -45 52 -47z m-2897 22 c-3 -9 -8 -14 -10 -11 -3 3 -2 9 2
15 9 16 15 13 8 -4z m1117 -85 c-6 -11 -16 -20 -22 -20 -6 0 -3 9 7 20 10 11
20 20 22 20 2 0 -1 -9 -7 -20z m11 -247 c-9 -16 -10 -15 -11 8 0 14 3 29 8 33
12 12 14 -22 3 -41z m6 -55 c-3 -7 -5 -2 -5 12 0 14 2 19 5 13 2 -7 2 -19 0
-25z m-157 -145 c0 -5 -10 -19 -21 -33 l-21 -25 18 33 c18 32 24 38 24 25z
m2104 -46 c-3 -18 -15 -48 -26 -67 -10 -19 -16 -26 -12 -15 4 11 11 44 16 72
6 29 14 50 20 47 5 -3 6 -20 2 -37z m-1990 -19 c4 -17 2 -28 -4 -28 -5 0 -10
11 -10 24 0 13 -3 33 -6 43 -4 14 -4 15 4 3 5 -8 12 -27 16 -42z"/>
</g>
</svg>
