<?xml version="1.0" standalone="no"?>
<!DOCTYPE svg PUBLIC "-//W3C//DTD SVG 20010904//EN"
 "http://www.w3.org/TR/2001/REC-SVG-20010904/DTD/svg10.dtd">
<svg version="1.0" xmlns="http://www.w3.org/2000/svg"
 width="700.000000pt" height="700.000000pt" viewBox="0 0 700.000000 700.000000"
 preserveAspectRatio="xMidYMid meet">
<metadata>
Created by potrace 1.14, written by Peter Selinger 2001-2017
</metadata>
<g transform="translate(0.000000,700.000000) scale(0.100000,-0.100000)"
fill="#000000" stroke="none">
<path d="M1390 6850 c-166 -6 -185 -11 -246 -66 -57 -52 -65 -73 -71 -201 -7
-129 -10 -1964 -4 -2053 3 -30 13 -72 23 -93 39 -78 121 -147 177 -147 17 0
254 87 326 120 11 5 142 57 290 115 149 59 284 113 300 120 84 36 1598 642
1624 650 21 6 17 -2 -30 -68 -52 -72 -259 -347 -269 -357 -5 -5 -40 -50 -208
-272 -113 -149 -280 -369 -402 -529 -36 -47 -74 -98 -85 -114 -11 -15 -32 -42
-46 -59 -14 -17 -113 -146 -219 -286 -326 -429 -375 -493 -654 -860 -311 -407
-275 -361 -490 -640 -91 -118 -169 -219 -173 -225 -5 -5 -36 -46 -68 -90 -33
-44 -62 -82 -65 -85 -6 -6 -46 -67 -86 -130 l-29 -45 -2 -581 c-3 -658 -5
-639 73 -719 25 -25 48 -45 52 -46 4 0 16 -3 27 -5 11 -3 65 -7 120 -9 80 -3
2146 -5 4311 -4 l340 0 36 33 c65 60 89 106 97 193 9 85 7 2106 -2 2138 -3 11
-6 25 -6 31 -1 6 -14 30 -30 54 -36 54 -104 100 -147 100 -18 0 -106 -27 -196
-59 -174 -63 -873 -325 -1023 -384 -49 -19 -198 -76 -330 -125 -310 -117 -555
-210 -580 -221 -11 -5 -90 -34 -175 -65 -85 -32 -164 -61 -175 -66 -11 -6 -71
-28 -134 -50 l-113 -40 17 27 c32 49 692 928 787 1048 5 6 22 28 39 50 16 22
35 47 42 55 23 28 192 250 217 284 27 37 433 571 453 596 16 20 245 320 277
364 14 18 228 304 477 634 249 331 461 618 472 639 51 102 54 141 54 703 0
389 -5 549 -21 591 -26 66 -114 136 -185 146 -54 7 -4162 10 -4367 3z"/>
</g>
</svg>
